<svg 
  xmlns="http://www.w3.org/2000/svg" 
  viewBox="0 0 24 24" 
  width="24" 
  height="24"
  fill="none"
  stroke="currentColor"
  stroke-width="1.5"
  stroke-linecap="round"
  stroke-linejoin="round"
  aria-hidden="true"
>
  <!-- Racing helmet profile - detailed -->
  <path d="M4 13c0-5 3.5-9 8-9s8 4 8 9c0 2-1 4-2.5 5.5l-.5.5H7l-.5-.5C5 17 4 15 4 13z" />
  <!-- Visor -->
  <path d="M6 12c0 0 2 3 6 3s6-3 6-3" />
  <path d="M6 12h12" />
  <!-- Visor reflection -->
  <path d="M8 11h4" stroke-width="1" opacity="0.5" />
  <!-- Top air intake -->
  <path d="M10 6h4" stroke-width="2" />
  <!-- Side vents -->
  <path d="M5 14l1 2" stroke-width="1" />
  <path d="M19 14l-1 2" stroke-width="1" />
</svg>
