<svg 
  xmlns="http://www.w3.org/2000/svg" 
  viewBox="0 0 24 24" 
  width="24" 
  height="24"
  fill="none"
  stroke="currentColor"
  stroke-width="1.5"
  stroke-linecap="round"
  stroke-linejoin="round"
  aria-hidden="true"
>
  <!-- Circular arrows with spark -->
  <path d="M3 12a9 9 0 0 1 9-9 9.75 9.75 0 0 1 6.74 2.74L21 8" />
  <path d="M21 12a9 9 0 0 1-9 9 9.75 9.75 0 0 1-6.74-2.74L3 16" />
  <!-- Arrow heads -->
  <path d="M21 3v5h-5" />
  <path d="M3 21v-5h5" />
  <!-- Spark/energy center -->
  <circle cx="12" cy="12" r="2" fill="currentColor" />
  <path d="M12 8v-1" stroke-width="2" />
  <path d="M12 17v-1" stroke-width="2" />
  <path d="M8 12h-1" stroke-width="2" />
  <path d="M17 12h-1" stroke-width="2" />
</svg>
