<svg 
  xmlns="http://www.w3.org/2000/svg" 
  viewBox="0 0 24 24" 
  width="24" 
  height="24"
  fill="none"
  stroke="currentColor"
  stroke-width="1.5"
  stroke-linecap="round"
  stroke-linejoin="round"
  aria-hidden="true"
>
  <!-- Circuit map outline - inspired by F1 track -->
  <path d="M4 8c0-2 2-4 4-4h8c2 0 4 2 4 4v2c0 1-1 2-2 3l-4 3c-1 1-2 2-2 4v2" stroke-width="2" />
  <!-- Track secondary line (inner edge) -->
  <path d="M7 8c0-1 1-2 2-2h6c1 0 2 1 2 2v1c0 1-0.5 1.5-1 2l-4 3c-1 1-1.5 2-1.5 3v1" stroke-width="1" opacity="0.5" />
  <!-- Start/finish marker -->
  <rect x="11" y="18" width="2" height="4" fill="currentColor" />
  <!-- Corner markers -->
  <circle cx="16" cy="6" r="1" fill="currentColor" />
  <circle cx="18" cy="10" r="1" fill="currentColor" />
  <circle cx="12" cy="14" r="1" fill="currentColor" />
</svg>
